#!OML:ASF F:\VICON\USERDATA\Patient Classification 1\PLAYGROUND\JustinFriday\JustinFriday.ASF
:FULLY-SPECIFIED
:DEGREES
2571
root -13.2372 30.7961 -9.86033 276.514 84.8959 -114.283
lowerback 25.0914 -0.0971643 -0.867433
upperback 10.9253 0.783497 3.35462
thorax -1.91896 0.627693 3.91578
lowerneck -5.53617 -0.281512 -4.13303
upperneck 21.487 0.74311 -0.381913
head 7.50069 0.150806 0.651951
rclavicle -5.66536e-015 -4.96962e-016
rhumerus -0.289524 23.1343 -75.5674
rradius 60.7796
rwrist 26.2946
rhand -39.9871 -2.93268
rfingers 7.12502
rthumb -12.9553 -32.5105
lclavicle -5.66536e-015 -4.96962e-016
lhumerus -3.57941 -20.6717 79.5149
lradius 61.0836
lwrist -35.872
lhand -34.6148 -32.7359
lfingers 7.12502
lthumb -7.77297 -2.89882
rfemur -29.0934 4.92854 25.1075
rtibia 36.1618
rfoot -30.6195 -13.5889
rtoes 7.55515
lfemur -30.9042 3.80258 -18.0334
ltibia 36.937
lfoot -27.4331 -3.97042
ltoes 6.56492
2572
root -13.2863 30.7946 -9.84484 278.876 84.2831 -112.009
lowerback 25.024 -0.0566813 -0.808877
upperback 11.1027 0.883795 3.73947
thorax -1.70065 0.670427 4.27812
lowerneck -7.36214 -4.18184 -9.57918
upperneck 22.1053 -4.43098 3.38607
head 8.38767 -2.38509 2.34467
rclavicle -2.5842e-015 5.02428e-014
rhumerus 0.181127 23.6048 -74.2458
rradius 61.7766
rwrist 26.9945
rhand -38.468 -4.222
rfingers 7.12502
rthumb -11.4906 -33.8871
lclavicle -2.5842e-015 5.02428e-014
lhumerus -3.12676 -19.0582 80.08
lradius 60.5056
lwrist -36.9093
lhand -34.6822 -33.3824
lfingers 7.12502
lthumb -7.83807 -3.54766
rfemur -29.4721 5.52529 25.7698
rtibia 36.7372
rfoot -30.1144 -15.3297
rtoes 4.14336
lfemur -31.1194 5.17403 -17.5881
ltibia 36.7605
lfoot -27.4192 -2.86136
ltoes -1.39208
2573
root -13.3263 30.7946 -9.838 277.109 83.9987 -113.643
lowerback 24.9924 -0.282369 -0.636394
upperback 11.4506 0.678205 3.89677
thorax -1.28265 0.576344 4.40703
lowerneck -7.60575 -4.31108 -10.7914
upperneck 22.7518 -4.50749 4.03968
head 8.71135 -2.46114 2.7617
rclavicle -1.25234e-014 -4.78077e-014
rhumerus 0.949291 24.1269 -73.2478
rradius 62.0532
rwrist 25.0152
rhand -39.6424 -2.67718
rfingers 7.12502
rthumb -12.623 -32.2758
lclavicle -1.25234e-014 -4.78077e-014
lhumerus -2.65563 -18.5914 79.7173
lradius 61.0474
lwrist -36.6714
lhand -34.534 -32.6646
lfingers 7.12502
lthumb -7.69503 -2.82461
rfemur -29.4736 5.74371 26.0643
rtibia 37.1923
rfoot -30.8138 -15.2139
rtoes 7.00981
lfemur -31.1 5.38173 -17.3942
ltibia 36.6927
lfoot -27.512 -1.33417
ltoes -7.82
2574
root -13.3494 30.817 -9.87744 273.357 83.8397 -116.987
lowerback 25.621 -0.883523 0.0434758
upperback 11.5613 0.101468 3.7574
thorax -1.41699 0.332677 4.0179
lowerneck -7.67586 -4.03982 -11.4679
upperneck 23.4727 -4.04524 4.30087
head 8.96069 -2.28264 3.02117
rclavicle -3.81667e-014 -4.44284e-014
rhumerus 1.52919 24.3186 -73.0598
rradius 62.4644
rwrist 26.274
rhand -37.5225 -3.82178
rfingers 7.12502
rthumb -10.5787 -33.5355
lclavicle -3.81667e-014 -4.44284e-014
lhumerus -2.62513 -17.7197 79.3598
lradius 61.4189
lwrist -36.5971
lhand -34.2554 -32.5534
lfingers 7.12502
lthumb -7.42609 -2.70369
rfemur -29.1404 5.19679 26.1174
rtibia 37.7803
rfoot -30.8204 -15.7413
rtoes 6.34866
lfemur -30.7283 3.90466 -17.1153
ltibia 36.6722
lfoot -27.3164 -1.36683
ltoes -4.6491
2575
root -13.4136 30.8417 -9.86031 268.303 84.5357 -121.961
lowerback 26.0346 -1.01609 -1.26213
upperback 11.6479 -0.321309 3.88576
thorax -1.45652 0.0808523 5.03136
lowerneck -6.75089 -3.54748 -11.9838
upperneck 22.6645 -3.31439 3.87475
head 8.45925 -2.01624 3.0354
rclavicle -6.36111e-015 -5.12864e-014
rhumerus 2.70519 24.746 -74.0219
rradius 61.2977
rwrist 26.271
rhand -39.3847 -2.77856
rfingers 7.12502
rthumb -12.3746 -32.3923
lclavicle -6.36111e-015 -5.12864e-014
lhumerus -2.56667 -17.8833 78.7246
lradius 62.5789
lwrist -35.4338
lhand -33.7927 -31.8414
lfingers 7.12502
lthumb -6.97947 -1.97648
rfemur -29.4187 4.81386 25.4534
rtibia 38.477
rfoot -30.5008 -16.4603
rtoes 5.6427
lfemur -31.0085 4.11903 -17.8988
ltibia 36.6242
lfoot -27.0205 -3.53075
ltoes 0.10268
2576
root -13.472 30.8328 -9.84698 270.499 84.0276 -120.149
lowerback 25.6536 -1.22802 -1.52661
upperback 11.7504 -0.644194 4.06087
thorax -1.11747 -0.102866 5.45412
lowerneck -5.45656 -3.22929 -11.76
upperneck 21.6387 -2.97259 3.29211
head 7.83828 -1.87665 2.83368
rclavicle -1.98785e-015 -2.40529e-014
rhumerus 3.68541 25.4862 -73.9269
rradius 61.4822
rwrist 27.7193
rhand -37.8412 -3.47505
rfingers 7.12502
rthumb -10.8861 -33.1729
lclavicle -1.98785e-015 -2.40529e-014
lhumerus -2.53932 -16.9754 78.0517
lradius 63.0382
lwrist -35.069
lhand -33.5214 -31.9582
lfingers 7.12502
lthumb -6.71754 -2.08474
rfemur -30.1641 4.83227 26.1522
rtibia 39.294
rfoot -30.2301 -16.7805
rtoes 6.02185
lfemur -31.6228 5.47314 -17.6492
ltibia 36.5794
lfoot -27.1339 -4.25515
ltoes 0.354032
2577
root -13.5256 30.8434 -9.86456 268.862 83.4297 -121.649
lowerback 26.307 -1.72127 -1.96459
upperback 11.6717 -1.33166 4.35887
thorax -1.40618 -0.458692 6.2401
lowerneck -4.57566 -2.65648 -11.5365
upperneck 21.5367 -2.17528 2.57295
head 7.57619 -1.54217 2.63094
rclavicle -1.11319e-014 -1.70955e-014
rhumerus 3.77588 29.6119 -71.4741
rradius 64.2378
rwrist 23.1254
rhand -39.5287 -4.4697
rfingers 7.12502
rthumb -12.5135 -34.075
lclavicle -1.11319e-014 -1.70955e-014
lhumerus -3.12317 -14.779 77.8153
lradius 63.3841
lwrist -35.2823
lhand -33.1705 -32.2513
lfingers 7.12502
lthumb -6.3788 -2.36739
rfemur -30.3328 4.40574 26.8026
rtibia 40.2648
rfoot -29.957 -17.22
rtoes 6.10017
lfemur -31.6231 4.51223 -16.6801
ltibia 36.4469
lfoot -26.2814 -6.86224
ltoes 10.1991
2578
root -13.5843 30.8492 -9.86075 267.414 83.8205 -122.994
lowerback 26.2876 -1.43791 -1.16773
upperback 11.9288 -0.758645 4.39295
thorax -1.2044 -0.141027 5.65949
lowerneck -4.51863 -3.28725 -13.489
upperneck 21.8319 -2.98681 3.71794
head 7.78915 -1.979 3.27303
rclavicle 1.31198e-014 -6.42074e-014
rhumerus 3.60306 27.1903 -70.9739
rradius 64.3263
rwrist 23.7381
rhand -39.4332 -4.13169
rfingers 7.12502
rthumb -12.4213 -33.7426
lclavicle 1.31198e-014 -6.42074e-014
lhumerus -1.61014 -15.8019 78.6581
lradius 63.2178
lwrist -35.556
lhand -32.8764 -32.1905
lfingers 7.12502
lthumb -6.09492 -2.29817
rfemur -30.6267 4.16947 26.4618
rtibia 41.2981
rfoot -29.5526 -17.6866
rtoes 5.27312
lfemur -31.676 4.99172 -17.2575
ltibia 36.2186
lfoot -26.0786 -6.94368
ltoes 7.91743
2579
root -13.6373 30.8577 -9.83867 265.186 84.4786 -124.98
lowerback 26.5754 -1.35603 -2.09235
upperback 11.9142 -0.868937 4.23742
thorax -1.31685 -0.222654 6.06211
lowerneck -3.36628 -2.98803 -13.8787
upperneck 21.4037 -2.6826 3.67242
head 7.42368 -1.85729 3.35213
rclavicle -6.59965e-014 -3.47873e-014
rhumerus 4.55145 26.0395 -73.2379
rradius 62.2265
rwrist 26.2094
rhand -39.17 -3.52913
rfingers 7.12502
rthumb -12.1676 -33.1553
lclavicle -6.59965e-014 -3.47873e-014
lhumerus -1.66074 -15.0292 78.7031
lradius 63.2722
lwrist -35.8649
lhand -32.5762 -33.0222
lfingers 7.12502
lthumb -5.80505 -3.12174
rfemur -30.7362 4.02019 25.8375
rtibia 42.343
rfoot -29.334 -17.8056
rtoes 5.18185
lfemur -31.5697 5.40117 -18.1045
ltibia 36.1057
lfoot -26.2447 -7.19833
ltoes 7.99736
2580
root -13.6566 30.8747 -9.84978 268.077 84.9866 -121.657
lowerback 26.6938 -1.03461 -3.03724
upperback 12.2566 -0.63029 4.48737
thorax -0.975966 -0.153541 6.83141
lowerneck -3.39113 -2.99298 -15.361
upperneck 21.8295 -2.56431 4.0759
head 7.60255 -1.88838 3.74665
rclavicle -2.66371e-014 -3.81667e-014
rhumerus 4.93706 26.7211 -70.5027
rradius 63.7999
rwrist 24.4264
rhand -38.8779 -3.51668
rfingers 7.12502
rthumb -11.8859 -33.1593
lclavicle -2.66371e-014 -3.81667e-014
lhumerus -1.1372 -13.9681 79.4896
lradius 63.2833
lwrist -36.272
lhand -32.2953 -33.8044
lfingers 7.12502
lthumb -5.5339 -3.8967
rfemur -30.4337 3.75547 25.3001
rtibia 43.3588
rfoot -29.16 -17.1579
rtoes 6.32624
lfemur -30.9375 5.12934 -18.7034
ltibia 35.9716
lfoot -26.995 -6.21433
ltoes 9.33668
2581
root -13.7381 30.8713 -9.8159 260.426 83.9451 -129.528
lowerback 26.9432 -1.20792 -2.34032
upperback 12.2323 -0.634091 4.96125
thorax -1.12855 -0.128801 6.96349
lowerneck -3.376 -3.36388 -16.3166
upperneck 22.3818 -3.06344 4.78942
head 7.87059 -2.15375 4.11519
rclavicle 5.96354e-015 -4.01545e-014
rhumerus 4.95053 26.4188 -69.7704
rradius 64.5159
rwrist 24.1411
rhand -38.8518 -4.20155
rfingers 7.12502
rthumb -11.8607 -33.8456
lclavicle 5.96354e-015 -4.01545e-014
lhumerus -0.378191 -14.9988 79.1949
lradius 63.8548
lwrist -35.8855
lhand -32.5822 -31.6852
lfingers 7.12502
lthumb -5.81084 -1.78492
rfemur -31.1327 3.30977 26.4586
rtibia 44.41
rfoot -28.5035 -17.6846
rtoes 7.1973
lfemur -31.7815 5.1748 -17.8493
ltibia 36.0345
lfoot -26.2557 -1.50235
ltoes -12.0646
